<svg width="270" height="310" viewBox="0 0 270 310" fill="none" xmlns="http://www.w3.org/2000/svg">
<path d="M0.856018 300.36L7.57602 298.952C8.15202 302.344 10.648 304.2 14.744 304.2C19.032 304.2 21.848 302.28 21.848 299.784C21.848 292.232 1.81602 298.376 1.81602 285.576C1.81602 279.88 7.32002 275.656 14.744 275.656C22.232 275.656 27.16 279.304 28.12 284.936L21.4 286.344C20.888 282.952 18.52 281.096 14.744 281.096C11.16 281.096 8.60002 282.76 8.60002 285.256C8.60002 292.552 28.632 286.472 28.632 299.656C28.632 305.416 22.552 309.64 14.744 309.64C6.87202 309.64 1.88002 305.992 0.856018 300.36Z" fill="#353535"/>
<path d="M33.956 295.432V276.296H40.676V295.432C40.676 300.232 44.132 303.432 48.868 303.432C53.476 303.432 56.996 300.232 56.996 295.432V276.296H63.716V295.432C63.716 303.88 57.38 309.64 48.868 309.64C40.228 309.64 33.956 303.88 33.956 295.432Z" fill="#353535"/>
<path d="M69.4335 292.68C69.4335 283.016 76.9215 275.656 86.7775 275.656C93.8175 275.656 99.7695 279.496 102.458 285.96L96.2495 288.072C94.5855 284.232 91.0655 281.864 86.7775 281.864C80.8895 281.864 76.3455 286.472 76.3455 292.68C76.3455 298.824 80.8895 303.432 86.7775 303.432C91.0655 303.432 94.5855 301.128 96.2495 297.224L102.458 299.336C99.7695 305.8 93.8175 309.64 86.7775 309.64C76.9215 309.64 69.4335 302.28 69.4335 292.68Z" fill="#353535"/>
<path d="M106.809 292.68C106.809 283.016 114.297 275.656 124.153 275.656C131.193 275.656 137.145 279.496 139.833 285.96L133.625 288.072C131.961 284.232 128.441 281.864 124.153 281.864C118.265 281.864 113.721 286.472 113.721 292.68C113.721 298.824 118.265 303.432 124.153 303.432C128.441 303.432 131.961 301.128 133.625 297.224L139.833 299.336C137.145 305.8 131.193 309.64 124.153 309.64C114.297 309.64 106.809 302.28 106.809 292.68Z" fill="#353535"/>
<path d="M161.208 275.656C171.704 275.656 179.256 284.232 178.04 294.92H150.968C151.928 300.104 156.088 303.816 161.72 303.816C166.008 303.816 169.528 301.576 171.384 297.992L177.016 300.488C174.2 305.864 168.696 309.64 161.528 309.64C151.672 309.64 144.184 302.28 144.184 292.68C144.184 283.016 151.544 275.656 161.208 275.656ZM161.208 281.48C156.216 281.48 152.312 284.872 151.16 289.672H171.256C170.168 284.936 166.392 281.48 161.208 281.48Z" fill="#353535"/>
<path d="M182.606 300.36L189.326 298.952C189.902 302.344 192.398 304.2 196.494 304.2C200.782 304.2 203.598 302.28 203.598 299.784C203.598 292.232 183.566 298.376 183.566 285.576C183.566 279.88 189.07 275.656 196.494 275.656C203.982 275.656 208.91 279.304 209.87 284.936L203.15 286.344C202.638 282.952 200.27 281.096 196.494 281.096C192.91 281.096 190.35 282.76 190.35 285.256C190.35 292.552 210.382 286.472 210.382 299.656C210.382 305.416 204.302 309.64 196.494 309.64C188.622 309.64 183.63 305.992 182.606 300.36Z" fill="#353535"/>
<path d="M213.981 300.36L220.701 298.952C221.277 302.344 223.773 304.2 227.869 304.2C232.157 304.2 234.973 302.28 234.973 299.784C234.973 292.232 214.941 298.376 214.941 285.576C214.941 279.88 220.445 275.656 227.869 275.656C235.357 275.656 240.285 279.304 241.245 284.936L234.525 286.344C234.013 282.952 231.645 281.096 227.869 281.096C224.285 281.096 221.725 282.76 221.725 285.256C221.725 292.552 241.757 286.472 241.757 299.656C241.757 305.416 235.677 309.64 227.869 309.64C219.997 309.64 215.005 305.992 213.981 300.36Z" fill="#353535"/>
<path d="M0.856018 213.36L7.57602 211.952C8.15202 215.344 10.648 217.2 14.744 217.2C19.032 217.2 21.848 215.28 21.848 212.784C21.848 205.232 1.81602 211.376 1.81602 198.576C1.81602 192.88 7.32002 188.656 14.744 188.656C22.232 188.656 27.16 192.304 28.12 197.936L21.4 199.344C20.888 195.952 18.52 194.096 14.744 194.096C11.16 194.096 8.60002 195.76 8.60002 198.256C8.60002 205.552 28.632 199.472 28.632 212.656C28.632 218.416 22.552 222.64 14.744 222.64C6.87202 222.64 1.88002 218.992 0.856018 213.36Z" fill="#353535"/>
<path d="M32.996 205.68C32.996 196.016 40.484 188.656 50.34 188.656C60.196 188.656 67.684 196.016 67.684 205.68C67.684 215.28 60.196 222.64 50.34 222.64C40.484 222.64 32.996 215.28 32.996 205.68ZM39.908 205.68C39.908 211.824 44.452 216.432 50.34 216.432C56.292 216.432 60.772 211.824 60.772 205.68C60.772 199.472 56.292 194.864 50.34 194.864C44.452 194.864 39.908 199.472 39.908 205.68Z" fill="#353535"/>
<path d="M80.6835 222H73.9635V174.64H80.6835V222Z" fill="#353535"/>
<path d="M87.8935 208.432V189.296H94.6135V208.432C94.6135 213.232 98.0695 216.432 102.806 216.432C107.414 216.432 110.934 213.232 110.934 208.432V189.296H117.654V208.432C117.654 216.88 111.318 222.64 102.806 222.64C94.1655 222.64 87.8935 216.88 87.8935 208.432Z" fill="#353535"/>
<path d="M129.067 195.248H122.091V189.296H129.067V178.672L135.787 176.56V189.296H145.003V195.248H135.787V210.352C135.787 214.32 137.451 216.048 141.419 216.048H145.003V222H141.419C132.971 222 129.067 218.096 129.067 210.032V195.248Z" fill="#353535"/>
<path d="M150.444 179.888C150.444 177.584 152.364 175.728 154.668 175.728C156.972 175.728 158.828 177.584 158.828 179.888C158.828 182.192 156.972 184.048 154.668 184.048C152.364 184.048 150.444 182.192 150.444 179.888ZM157.996 222H151.276V189.296H157.996V222Z" fill="#353535"/>
<path d="M164.246 205.68C164.246 196.016 171.734 188.656 181.59 188.656C191.446 188.656 198.934 196.016 198.934 205.68C198.934 215.28 191.446 222.64 181.59 222.64C171.734 222.64 164.246 215.28 164.246 205.68ZM171.158 205.68C171.158 211.824 175.702 216.432 181.59 216.432C187.542 216.432 192.022 211.824 192.022 205.68C192.022 199.472 187.542 194.864 181.59 194.864C175.702 194.864 171.158 199.472 171.158 205.68Z" fill="#353535"/>
<path d="M222.686 188.656C230.622 188.656 236.254 194.48 236.254 202.48V222H229.534V203.504C229.534 198.448 225.822 194.8 220.766 194.8C215.71 194.8 211.934 198.448 211.934 203.504V222H205.214V189.296H211.934V193.968C214.302 190.768 218.142 188.656 222.686 188.656Z" fill="#353535"/>
<path d="M241.606 213.36L248.326 211.952C248.902 215.344 251.398 217.2 255.494 217.2C259.782 217.2 262.598 215.28 262.598 212.784C262.598 205.232 242.566 211.376 242.566 198.576C242.566 192.88 248.07 188.656 255.494 188.656C262.982 188.656 267.91 192.304 268.87 197.936L262.15 199.344C261.638 195.952 259.27 194.096 255.494 194.096C251.91 194.096 249.35 195.76 249.35 198.256C249.35 205.552 269.382 199.472 269.382 212.656C269.382 218.416 263.302 222.64 255.494 222.64C247.622 222.64 242.63 218.992 241.606 213.36Z" fill="#353535"/>
<path d="M21.144 101.656C30.296 101.656 37.272 109.016 37.272 118.68C37.272 128.28 30.296 135.64 21.144 135.64C16.28 135.64 12.184 133.528 9.49602 130.136V147.8H2.77602V102.296H9.49602V107.16C12.184 103.768 16.28 101.656 21.144 101.656ZM19.928 129.432C25.816 129.432 30.296 124.824 30.296 118.68C30.296 112.472 25.816 107.864 19.928 107.864C13.976 107.864 9.49602 112.472 9.49602 118.68C9.49602 124.824 13.976 129.432 19.928 129.432Z" fill="#353535"/>
<path d="M50.246 102.296V106.968C53.062 103.064 57.798 100.824 63.046 102.04V108.44C55.878 106.456 50.246 110.232 50.246 116.504V135H43.526V102.296H50.246Z" fill="#353535"/>
<path d="M63.996 118.68C63.996 109.016 71.484 101.656 81.34 101.656C91.196 101.656 98.684 109.016 98.684 118.68C98.684 128.28 91.196 135.64 81.34 135.64C71.484 135.64 63.996 128.28 63.996 118.68ZM70.908 118.68C70.908 124.824 75.452 129.432 81.34 129.432C87.292 129.432 91.772 124.824 91.772 118.68C91.772 112.472 87.292 107.864 81.34 107.864C75.452 107.864 70.908 112.472 70.908 118.68Z" fill="#353535"/>
<path d="M131.147 107.096V102.296H137.867V131.48C137.867 141.08 130.379 148.44 120.523 148.44C113.419 148.44 107.851 144.664 105.163 139.224L111.243 136.216C112.971 139.928 116.235 142.296 120.523 142.296C126.411 142.296 131.147 137.688 131.147 131.48V129.56C128.459 132.888 124.363 134.936 119.499 134.936C110.347 134.936 103.371 127.768 103.371 118.296C103.371 108.888 110.347 101.656 119.499 101.656C124.363 101.656 128.459 103.704 131.147 107.096ZM120.715 128.792C126.667 128.792 131.147 124.248 131.147 118.296C131.147 112.344 126.667 107.864 120.715 107.864C114.827 107.864 110.283 112.344 110.283 118.296C110.283 124.248 114.827 128.792 120.715 128.792Z" fill="#353535"/>
<path d="M152.121 102.296V106.968C154.937 103.064 159.673 100.824 164.921 102.04V108.44C157.753 106.456 152.121 110.232 152.121 116.504V135H145.401V102.296H152.121Z" fill="#353535"/>
<path d="M182.895 101.656C193.391 101.656 200.943 110.232 199.727 120.92H172.655C173.615 126.104 177.775 129.816 183.407 129.816C187.695 129.816 191.215 127.576 193.071 123.992L198.703 126.488C195.887 131.864 190.383 135.64 183.215 135.64C173.359 135.64 165.871 128.28 165.871 118.68C165.871 109.016 173.231 101.656 182.895 101.656ZM182.895 107.48C177.903 107.48 173.999 110.872 172.847 115.672H192.943C191.855 110.936 188.079 107.48 182.895 107.48Z" fill="#353535"/>
<path d="M204.294 126.36L211.014 124.952C211.59 128.344 214.086 130.2 218.182 130.2C222.47 130.2 225.286 128.28 225.286 125.784C225.286 118.232 205.254 124.376 205.254 111.576C205.254 105.88 210.758 101.656 218.182 101.656C225.67 101.656 230.598 105.304 231.558 110.936L224.838 112.344C224.326 108.952 221.958 107.096 218.182 107.096C214.598 107.096 212.038 108.76 212.038 111.256C212.038 118.552 232.07 112.472 232.07 125.656C232.07 131.416 225.99 135.64 218.182 135.64C210.31 135.64 205.318 131.992 204.294 126.36Z" fill="#353535"/>
<path d="M235.669 126.36L242.389 124.952C242.965 128.344 245.461 130.2 249.557 130.2C253.845 130.2 256.661 128.28 256.661 125.784C256.661 118.232 236.629 124.376 236.629 111.576C236.629 105.88 242.133 101.656 249.557 101.656C257.045 101.656 261.973 105.304 262.933 110.936L256.213 112.344C255.701 108.952 253.333 107.096 249.557 107.096C245.973 107.096 243.413 108.76 243.413 111.256C243.413 118.552 263.445 112.472 263.445 125.656C263.445 131.416 257.365 135.64 249.557 135.64C241.685 135.64 236.693 131.992 235.669 126.36Z" fill="#353535"/>
<path d="M29.272 20.16V0.640015H35.992V48H29.272V43.136C26.584 46.528 22.488 48.64 17.624 48.64C8.47202 48.64 1.49602 41.28 1.49602 31.68C1.49602 22.016 8.47202 14.656 17.624 14.656C22.488 14.656 26.584 16.768 29.272 20.16ZM18.84 42.432C24.792 42.432 29.272 37.824 29.272 31.68C29.272 25.472 24.792 20.864 18.84 20.864C12.952 20.864 8.40802 25.472 8.40802 31.68C8.40802 37.824 12.952 42.432 18.84 42.432Z" fill="#353535"/>
<path d="M59.27 14.656C69.766 14.656 77.318 23.232 76.102 33.92H49.03C49.99 39.104 54.15 42.816 59.782 42.816C64.07 42.816 67.59 40.576 69.446 36.992L75.078 39.488C72.262 44.864 66.758 48.64 59.59 48.64C49.734 48.64 42.246 41.28 42.246 31.68C42.246 22.016 49.606 14.656 59.27 14.656ZM59.27 20.48C54.278 20.48 50.374 23.872 49.222 28.672H69.318C68.23 23.936 64.454 20.48 59.27 20.48Z" fill="#353535"/>
<path d="M80.6685 39.36L87.3885 37.952C87.9645 41.344 90.4605 43.2 94.5565 43.2C98.8445 43.2 101.661 41.28 101.661 38.784C101.661 31.232 81.6285 37.376 81.6285 24.576C81.6285 18.88 87.1325 14.656 94.5565 14.656C102.045 14.656 106.973 18.304 107.933 23.936L101.213 25.344C100.701 21.952 98.3325 20.096 94.5565 20.096C90.9725 20.096 88.4125 21.76 88.4125 24.256C88.4125 31.552 108.445 25.472 108.445 38.656C108.445 44.416 102.365 48.64 94.5565 48.64C86.6845 48.64 81.6925 44.992 80.6685 39.36Z" fill="#353535"/>
<path d="M113.257 5.88801C113.257 3.58401 115.177 1.72801 117.481 1.72801C119.785 1.72801 121.641 3.58401 121.641 5.88801C121.641 8.19201 119.785 10.048 117.481 10.048C115.177 10.048 113.257 8.19201 113.257 5.88801ZM120.809 48H114.089V15.296H120.809V48Z" fill="#353535"/>
<path d="M154.835 20.096V15.296H161.555V44.48C161.555 54.08 154.067 61.44 144.211 61.44C137.107 61.44 131.539 57.664 128.851 52.224L134.931 49.216C136.659 52.928 139.923 55.296 144.211 55.296C150.099 55.296 154.835 50.688 154.835 44.48V42.56C152.147 45.888 148.051 47.936 143.187 47.936C134.035 47.936 127.059 40.768 127.059 31.296C127.059 21.888 134.035 14.656 143.187 14.656C148.051 14.656 152.147 16.704 154.835 20.096ZM144.403 41.792C150.355 41.792 154.835 37.248 154.835 31.296C154.835 25.344 150.355 20.864 144.403 20.864C138.515 20.864 133.971 25.344 133.971 31.296C133.971 37.248 138.515 41.792 144.403 41.792Z" fill="#353535"/>
<path d="M186.561 14.656C194.497 14.656 200.129 20.48 200.129 28.48V48H193.409V29.504C193.409 24.448 189.697 20.8 184.641 20.8C179.585 20.8 175.809 24.448 175.809 29.504V48H169.089V15.296H175.809V19.968C178.177 16.768 182.017 14.656 186.561 14.656Z" fill="#353535"/>
<path d="M205.481 39.36L212.201 37.952C212.777 41.344 215.273 43.2 219.369 43.2C223.657 43.2 226.473 41.28 226.473 38.784C226.473 31.232 206.441 37.376 206.441 24.576C206.441 18.88 211.945 14.656 219.369 14.656C226.857 14.656 231.785 18.304 232.745 23.936L226.025 25.344C225.513 21.952 223.145 20.096 219.369 20.096C215.785 20.096 213.225 21.76 213.225 24.256C213.225 31.552 233.257 25.472 233.257 38.656C233.257 44.416 227.177 48.64 219.369 48.64C211.497 48.64 206.505 44.992 205.481 39.36Z" fill="#353535"/>
</svg>
