<svg width="276" height="44" viewBox="0 0 276 44" fill="none" xmlns="http://www.w3.org/2000/svg">
<g clip-path="url(#clip0_204_378)">
<path d="M5.17147 30.6841C6.22373 31.4432 7.54547 31.8163 9.14953 31.8163C11.2155 31.8163 12.8453 31.4174 14.0515 30.6326C15.2578 29.8478 15.8481 28.7929 15.8481 27.4549C15.8481 26.6572 15.6042 26.0139 15.1038 25.5379C14.6033 25.0619 14.0002 24.7016 13.2559 24.4443C12.5116 24.187 11.5364 23.9297 10.3044 23.6595C8.70039 23.3508 7.40431 23.0034 6.40338 22.6174C5.40245 22.2315 4.54268 21.6397 3.8369 20.8291C3.13111 20.0315 2.77181 18.925 2.77181 17.5356C2.77181 16.1461 3.16961 15.0011 3.95239 13.9204C4.73517 12.8397 5.83876 11.9777 7.25033 11.3215C8.66189 10.6783 10.3173 10.3438 12.1908 10.3438C14.6546 10.3438 16.6693 10.9742 18.2221 12.2221C19.7748 13.4701 20.6987 15.0268 20.9682 16.8794L17.5933 17.5742C17.4393 16.249 16.8747 15.194 15.8866 14.4221C14.8985 13.6502 13.6537 13.2642 12.1395 13.2642C10.3173 13.2642 8.88004 13.6373 7.81495 14.3707C6.74986 15.104 6.22373 16.1204 6.22373 17.3812C6.22373 18.1274 6.46755 18.7192 6.94235 19.1695C7.41715 19.6198 8.00744 19.9543 8.72606 20.1859C9.43184 20.4174 10.4071 20.6619 11.639 20.9063C13.2687 21.2794 14.5905 21.6525 15.6171 22.0128C16.6437 22.373 17.4906 22.9905 18.2092 23.8139C18.915 24.6502 19.2743 25.8209 19.2743 27.3391C19.2743 28.7543 18.838 30.028 17.9526 31.1344C17.08 32.2408 15.8609 33.1157 14.321 33.7461C12.7811 34.3765 11.0616 34.6981 9.14953 34.6981C7.42998 34.6981 5.90292 34.4151 4.58118 33.8361C3.25944 33.2701 2.20718 32.4853 1.43723 31.4946C0.667287 30.504 0.192487 29.3976 0 28.1625L3.3236 27.4677C3.50325 28.8315 4.11921 29.8864 5.17147 30.6455V30.6841Z" fill="#AC1081"/>
<path d="M24.6254 10.8325H28.0388L30.9518 34.0419H28.8216L41.6155 10.8325H45.1316L48.0831 34.0419H45.9529L58.657 10.8325H62.3528L49.007 34.2735H45.1701L41.7952 11.2056H45.029L31.8116 34.2735H27.9747L24.5997 10.8325H24.6254Z" fill="#AC1081"/>
<path d="M66.1127 10.8328H69.5774L64.5856 34.2737H61.1208L66.1127 10.8328ZM67.7296 2.26437C68.1659 1.82694 68.6792 1.62109 69.2951 1.62109C69.9111 1.62109 70.4757 1.83981 70.912 2.26437C71.3483 2.68893 71.5536 3.24215 71.5536 3.88542C71.5536 4.5287 71.3355 5.03045 70.912 5.45501C70.4757 5.89244 69.9367 6.09829 69.2951 6.09829C68.6535 6.09829 68.153 5.87957 67.7296 5.45501C67.2932 5.01758 67.0879 4.50296 67.0879 3.88542C67.0879 3.26788 67.3061 2.7018 67.7296 2.26437Z" fill="#AC1081"/>
<path d="M94.19 26.3485C93.8179 28.0468 93.9205 29.2819 94.4852 30.0409C95.0626 30.7871 96.2047 31.1731 97.9243 31.1731H100.234L99.5411 34.2737H97.565C94.7931 34.2737 92.8298 33.5661 91.6877 32.138C90.5584 30.7228 90.2761 28.6515 90.8664 25.9368L93.4072 13.9462H81.6271L77.2769 34.2737H73.8635L78.2008 13.9462H72.8882L73.5426 10.8327H78.8553L79.4456 8.0538C79.8562 6.04678 80.4337 4.46433 81.2036 3.30643C81.9735 2.14854 83.013 1.31228 84.2962 0.784795C85.5923 0.25731 87.2733 0 89.3394 0H91.6492L90.9562 3.10058H88.6464C87.4145 3.10058 86.4264 3.25497 85.6821 3.53801C84.9507 3.83392 84.3604 4.33567 83.9369 5.03041C83.5006 5.72515 83.1413 6.69006 82.8718 7.92515L82.2687 10.8327H94.0489L95.8069 2.45731L99.4513 1.38947L97.4623 10.8327H104.533L103.891 13.9462H96.8207L94.19 26.3485Z" fill="#AC1081"/>
<path d="M108.177 16.0947C109.191 14.1906 110.59 12.7111 112.361 11.6304C114.132 10.5497 116.095 10.0094 118.251 10.0094C120.407 10.0094 122.267 10.5497 123.91 11.6304C125.553 12.7111 126.836 14.1906 127.747 16.0561C128.658 17.9216 129.107 20.0316 129.107 22.3731C129.107 24.7146 128.658 26.8374 127.747 28.7158C126.836 30.5942 125.553 32.0737 123.91 33.1415C122.267 34.2094 120.381 34.7368 118.251 34.7368C116.121 34.7368 114.132 34.1965 112.361 33.1158C110.59 32.0351 109.191 30.5556 108.177 28.6643C107.164 26.7731 106.65 24.676 106.65 22.3602C106.65 20.0444 107.164 17.986 108.177 16.0819V16.0947ZM113.375 26.0526C113.978 27.1462 114.786 28.0082 115.826 28.6515C116.852 29.2819 118.02 29.6035 119.316 29.6035C120.612 29.6035 121.767 29.2819 122.806 28.6515C123.833 28.0211 124.654 27.1591 125.257 26.0526C125.861 24.9591 126.156 23.724 126.156 22.3731C126.156 21.0222 125.861 19.8257 125.257 18.7193C124.654 17.6129 123.846 16.738 122.806 16.1205C121.78 15.5029 120.612 15.1942 119.316 15.1942C118.02 15.1942 116.865 15.5029 115.826 16.1205C114.799 16.738 113.978 17.6 113.375 18.7193C112.771 19.8386 112.476 21.048 112.476 22.3731C112.476 23.6982 112.771 24.9591 113.375 26.0526ZM126.143 0H131.776V34.2737H126.143V0Z" fill="#353535"/>
<path d="M141.17 20.0058H156.735L155.439 21.7683C155.375 20.4689 155.041 19.2982 154.451 18.2432C153.848 17.2011 153.04 16.3648 152.026 15.7602C151.012 15.1555 149.857 14.8596 148.561 14.8596C147.265 14.8596 146.097 15.1812 145.045 15.8373C143.993 16.4806 143.171 17.3941 142.555 18.552C141.94 19.7099 141.632 20.9835 141.632 22.373C141.632 23.7625 141.952 25.0748 142.581 26.2198C143.21 27.3648 144.083 28.2526 145.186 28.9087C146.29 29.552 147.547 29.8865 148.933 29.8865C150.319 29.8865 151.615 29.5648 152.744 28.9087C153.874 28.2654 154.733 27.352 155.349 26.1812L159.969 28.2654C158.917 30.2081 157.415 31.7777 155.465 32.9613C153.514 34.1449 151.282 34.7496 148.792 34.7496C146.457 34.7496 144.314 34.2093 142.376 33.1286C140.438 32.0479 138.911 30.5683 137.808 28.6771C136.704 26.7859 136.139 24.6888 136.139 22.373C136.139 20.0572 136.691 17.9988 137.782 16.0947C138.873 14.1906 140.374 12.711 142.26 11.6303C144.16 10.5496 146.251 10.0093 148.561 10.0093C151.115 10.0093 153.399 10.6526 155.401 11.952C157.403 13.2514 158.891 14.9882 159.854 17.1882C160.829 19.3882 161.137 21.7555 160.803 24.3157H141.17V20.0058Z" fill="#353535"/>
<path d="M170.748 29.3588C171.544 29.9506 172.622 30.2337 173.982 30.2337C175.342 30.2337 176.446 29.9635 177.306 29.4232C178.165 28.8828 178.602 28.2138 178.602 27.4033C178.602 26.76 178.358 26.2325 177.883 25.8466C177.408 25.4606 176.818 25.1647 176.099 24.9717C175.394 24.7659 174.418 24.5729 173.186 24.3928C171.339 24.084 169.837 23.7366 168.682 23.3506C167.527 22.9647 166.514 22.2957 165.654 21.3565C164.794 20.4173 164.358 19.0793 164.358 17.3553C164.358 15.9916 164.768 14.7565 165.603 13.6243C166.437 12.4922 167.579 11.6045 169.042 10.9612C170.504 10.3179 172.147 9.9834 173.956 9.9834C176.703 9.9834 178.948 10.6009 180.719 11.836C182.49 13.0711 183.542 14.7179 183.889 16.7892L178.294 17.9986C178.114 16.8536 177.652 15.9787 176.908 15.3869C176.164 14.7822 175.188 14.4863 173.956 14.4863C172.814 14.4863 171.878 14.7308 171.133 15.2325C170.389 15.7214 170.03 16.3647 170.03 17.1366C170.03 17.7799 170.248 18.3074 170.697 18.6933C171.146 19.0793 171.711 19.3623 172.404 19.5553C173.097 19.7354 174.072 19.9413 175.342 20.16C177.165 20.4688 178.666 20.829 179.847 21.2278C181.027 21.6267 182.054 22.3085 182.913 23.2606C183.773 24.2126 184.21 25.5764 184.21 27.339C184.21 28.7284 183.76 29.9892 182.849 31.1085C181.938 32.2407 180.706 33.1284 179.128 33.7717C177.549 34.415 175.83 34.7495 173.956 34.7495C172.083 34.7495 170.325 34.4664 168.875 33.9132C167.425 33.36 166.257 32.5752 165.359 31.546C164.46 30.5296 163.896 29.3202 163.652 27.9308L169.285 26.7214C169.439 27.8922 169.914 28.7799 170.723 29.3588H170.748Z" fill="#353535"/>
<path d="M188.727 1.33815C189.407 0.65628 190.215 0.321777 191.178 0.321777C192.14 0.321777 192.897 0.65628 193.552 1.33815C194.219 2.02002 194.54 2.81768 194.54 3.744C194.54 4.67032 194.206 5.51944 193.552 6.20131C192.884 6.88318 192.102 7.21768 191.178 7.21768C190.254 7.21768 189.407 6.88318 188.727 6.20131C188.047 5.51944 187.713 4.70891 187.713 3.744C187.713 2.77909 188.047 2.02002 188.727 1.33815ZM188.316 10.4727H193.949V34.2738H188.316V10.4727Z" fill="#353535"/>
<path d="M199.801 15.9531C200.815 14.1134 202.213 12.6596 203.984 11.6046C205.755 10.5368 207.719 10.0093 209.874 10.0093C212.03 10.0093 213.891 10.5368 215.534 11.5789C217.176 12.6338 218.459 14.0748 219.37 15.9145C220.282 17.7543 220.731 19.7999 220.731 22.0514C220.731 24.3028 220.282 26.3871 219.37 28.214C218.459 30.0409 217.176 31.4689 215.534 32.5239C213.891 33.5789 212.005 34.0935 209.874 34.0935C207.744 34.0935 205.755 33.566 203.984 32.5239C202.213 31.4818 200.815 30.028 199.801 28.1882C198.787 26.3485 198.274 24.3157 198.274 22.1028C198.274 19.89 198.787 17.8058 199.801 15.966V15.9531ZM207.154 37.7987C208.206 38.5064 209.4 38.8666 210.76 38.8666C212.12 38.8666 213.237 38.5578 214.289 37.9403C215.354 37.3227 216.201 36.4607 216.83 35.3672C217.458 34.2736 217.779 33.0257 217.779 31.6362V10.4724H223.413V31.6876C223.413 33.9777 222.848 36.0619 221.732 37.9403C220.602 39.8186 219.088 41.311 217.163 42.3917C215.238 43.4724 213.108 44.0128 210.76 44.0128C208.296 44.0128 206.089 43.421 204.151 42.2245C202.213 41.028 200.712 39.4584 199.673 37.4771L204.703 34.8397C205.293 36.1005 206.102 37.0911 207.154 37.7987ZM204.998 25.5637C205.601 26.6186 206.41 27.442 207.449 28.0467C208.476 28.6514 209.643 28.9473 210.94 28.9473C212.236 28.9473 213.391 28.6514 214.43 28.0467C215.457 27.442 216.278 26.6186 216.881 25.5637C217.484 24.5087 217.779 23.3379 217.779 22.0385C217.779 20.7391 217.484 19.6198 216.881 18.5648C216.278 17.5227 215.469 16.6865 214.43 16.0818C213.403 15.4771 212.236 15.1812 210.94 15.1812C209.643 15.1812 208.489 15.4771 207.449 16.0818C206.423 16.6865 205.601 17.5099 204.998 18.5648C204.395 19.6198 204.1 20.7906 204.1 22.09C204.1 23.3894 204.395 24.5087 204.998 25.5637Z" fill="#353535"/>
<path d="M228.905 10.4724H234.538V16.2619L233.666 15.104C234.461 13.5602 235.603 12.3251 237.079 11.3988C238.555 10.4724 240.236 10.0093 242.11 10.0093C243.983 10.0093 245.664 10.4467 247.14 11.3087C248.616 12.1707 249.77 13.3543 250.579 14.8467C251.4 16.352 251.798 18.0502 251.798 19.9672V34.2736H246.203V20.8935C246.203 19.8128 245.946 18.835 245.446 17.9473C244.933 17.0724 244.24 16.3777 243.367 15.8888C242.494 15.3999 241.481 15.1426 240.339 15.1426C239.197 15.1426 238.234 15.3871 237.362 15.8888C236.489 16.3777 235.796 17.0724 235.283 17.9473C234.769 18.8221 234.526 19.8128 234.526 20.8935V34.2736H228.892V10.4724H228.905Z" fill="#353535"/>
<path d="M262.513 29.3588C263.309 29.9506 264.387 30.2337 265.747 30.2337C267.107 30.2337 268.211 29.9635 269.07 29.4232C269.93 28.8828 270.367 28.2138 270.367 27.4033C270.367 26.76 270.123 26.2325 269.648 25.8466C269.173 25.4606 268.583 25.1647 267.864 24.9717C267.158 24.7659 266.183 24.5729 264.951 24.3928C263.103 24.084 261.602 23.7366 260.447 23.3506C259.292 22.9647 258.278 22.2957 257.419 21.3565C256.559 20.4173 256.123 19.0793 256.123 17.3553C256.123 15.9916 256.533 14.7565 257.367 13.6243C258.201 12.4922 259.343 11.6045 260.806 10.9612C262.269 10.3179 263.912 9.9834 265.721 9.9834C268.467 9.9834 270.713 10.6009 272.484 11.836C274.255 13.0711 275.307 14.7179 275.653 16.7892L270.059 17.9986C269.879 16.8536 269.417 15.9787 268.673 15.3869C267.928 14.7822 266.953 14.4863 265.721 14.4863C264.579 14.4863 263.642 14.7308 262.898 15.2325C262.154 15.7214 261.794 16.3647 261.794 17.1366C261.794 17.7799 262.013 18.3074 262.462 18.6933C262.911 19.0793 263.476 19.3623 264.168 19.5553C264.861 19.7354 265.837 19.9413 267.107 20.16C268.929 20.4688 270.431 20.829 271.611 21.2278C272.792 21.6267 273.818 22.3085 274.678 23.2606C275.538 24.2126 275.974 25.5764 275.974 27.339C275.974 28.7284 275.525 29.9892 274.614 31.1085C273.703 32.2407 272.471 33.1284 270.893 33.7717C269.314 34.415 267.595 34.7495 265.721 34.7495C263.848 34.7495 262.09 34.4664 260.64 33.9132C259.189 33.36 258.022 32.5752 257.123 31.546C256.225 30.5296 255.661 29.3202 255.417 27.9308L261.05 26.7214C261.204 27.8922 261.679 28.7799 262.487 29.3588H262.513Z" fill="#353535"/>
</g>
<defs>
<clipPath id="clip0_204_378">
<rect width="276" height="44" fill="white"/>
</clipPath>
</defs>
</svg>
