<svg width="121" height="19" viewBox="0 0 121 19" fill="none" xmlns="http://www.w3.org/2000/svg">
<path d="M3.24943 12.9101C3.70077 13.2279 4.28316 13.3903 4.97474 13.3903C5.87015 13.3903 6.58357 13.2279 7.10043 12.8959C7.62458 12.564 7.88665 12.1191 7.88665 11.5611C7.88665 11.2221 7.77745 10.9538 7.56634 10.749C7.35523 10.5441 7.08587 10.3958 6.76556 10.2899C6.44525 10.184 6.01575 10.078 5.47704 9.95797C4.77818 9.83084 4.21764 9.68253 3.78085 9.5201C3.34406 9.35766 2.97279 9.11048 2.66704 8.77148C2.36129 8.43248 2.20842 7.97342 2.20842 7.38724C2.20842 6.80106 2.37585 6.32081 2.718 5.86882C3.06015 5.41682 3.54062 5.04958 4.15212 4.7812C4.7709 4.50577 5.48432 4.37158 6.29966 4.37158C7.36979 4.37158 8.24336 4.63289 8.92038 5.16257C9.5974 5.68519 9.99779 6.342 10.1143 7.11887L8.65103 7.40843C8.58551 6.8505 8.338 6.40556 7.90849 6.08069C7.47898 5.75582 6.94028 5.59338 6.2851 5.59338C5.4916 5.59338 4.86554 5.74876 4.40691 6.0595C3.94829 6.37025 3.71533 6.794 3.71533 7.32368C3.71533 7.63443 3.81725 7.88867 4.02836 8.0723C4.23948 8.25592 4.49427 8.40423 4.80002 8.50311C5.10577 8.60198 5.528 8.70085 6.0667 8.80679C6.77284 8.96216 7.35523 9.11754 7.79201 9.27291C8.2288 9.42828 8.60735 9.68253 8.9131 10.0357C9.21885 10.3888 9.37173 10.8831 9.37173 11.5188C9.37173 12.1191 9.18245 12.6488 8.79662 13.1149C8.41808 13.581 7.88665 13.9482 7.21691 14.2166C6.54717 14.485 5.79735 14.6192 4.96746 14.6192C4.21764 14.6192 3.55518 14.4991 2.98007 14.259C2.40497 14.0189 1.94634 13.694 1.61147 13.2773C1.2766 12.8606 1.06549 12.3945 0.985413 11.8719L2.43409 11.5823C2.51417 12.1544 2.78352 12.5993 3.23487 12.9171L3.24943 12.9101Z" fill="#AC1081"/>
<path d="M11.7086 4.5625H13.1936L14.4603 14.3228H13.5358L19.0975 4.5625H20.6263L21.9148 14.3228H20.9903L26.5156 4.5625H28.1245L22.3225 14.4217H20.6554L19.1922 4.71787H20.5972L14.8534 14.4217H13.1864L11.7231 4.5625H11.7086Z" fill="#AC1081"/>
<path d="M29.7406 4.56207H31.2475L29.0781 14.4212H27.5712L29.7406 4.56207ZM30.4467 0.953169C30.636 0.769546 30.8617 0.677734 31.131 0.677734C31.4004 0.677734 31.6479 0.769546 31.8372 0.953169C32.0265 1.13679 32.1211 1.36279 32.1211 1.63823C32.1211 1.91366 32.0265 2.11847 31.8372 2.30209C31.6479 2.48572 31.415 2.57753 31.131 2.57753C30.8471 2.57753 30.636 2.48572 30.4467 2.30209C30.2575 2.11847 30.1628 1.89954 30.1628 1.63823C30.1628 1.37692 30.2575 1.13679 30.4467 0.953169Z" fill="#AC1081"/>
<path d="M41.9488 11.0878C41.7886 11.8011 41.8323 12.3237 42.0798 12.6415C42.3273 12.9523 42.8296 13.1147 43.5722 13.1147H44.5768L44.2783 14.4213H43.4193C42.2109 14.4213 41.3591 14.1246 40.8641 13.5243C40.3764 12.9311 40.2526 12.0553 40.5074 10.9183L41.6139 5.87572H36.489L34.5962 14.4283H33.1111L34.9966 5.87572H32.6889L32.9728 4.56917H35.2805L35.5353 3.3968C35.7173 2.54931 35.9648 1.88544 36.2997 1.39814C36.6346 0.910828 37.0859 0.557706 37.6464 0.33877C38.207 0.119835 38.9422 0.00683594 39.8377 0.00683594H40.8423L40.5438 1.31339H39.5392C39.0005 1.31339 38.571 1.37695 38.2507 1.49701C37.9303 1.62413 37.6756 1.83601 37.4936 2.12557C37.3043 2.41513 37.1441 2.82475 37.0277 3.3403L36.7656 4.56211H41.8906L42.6549 1.03795L44.2419 0.585956L43.3756 4.56211H46.4477L46.1711 5.86866H43.099L41.9561 11.0878H41.9488Z" fill="#AC1081"/>
<path d="M48.0347 6.77287C48.4788 5.97482 49.083 5.34626 49.8547 4.89427C50.6263 4.44227 51.4781 4.20921 52.4171 4.20921C53.3562 4.20921 54.1643 4.43521 54.8777 4.89427C55.5911 5.34626 56.1517 5.96776 56.5448 6.75875C56.9379 7.54268 57.1344 8.43255 57.1344 9.42129C57.1344 10.41 56.9379 11.2999 56.5448 12.0909C56.1517 12.8819 55.5911 13.5034 54.8777 13.9483C54.1643 14.3932 53.3417 14.6192 52.4171 14.6192C51.4926 14.6192 50.6263 14.3932 49.8547 13.9342C49.083 13.4822 48.4788 12.8536 48.0347 12.0626C47.5906 11.2716 47.3723 10.3888 47.3723 9.41422C47.3723 8.43961 47.5906 7.57093 48.0347 6.77287ZM50.2914 10.9609C50.5535 11.42 50.9102 11.7872 51.3543 12.0485C51.8056 12.3169 52.3079 12.4511 52.8685 12.4511C53.429 12.4511 53.9386 12.3169 54.3827 12.0485C54.834 11.7801 55.1835 11.42 55.4455 10.9609C55.7076 10.5018 55.8386 9.98628 55.8386 9.41422C55.8386 8.84217 55.7076 8.34073 55.4455 7.87461C55.1835 7.40849 54.8268 7.04125 54.3827 6.787C53.9313 6.52569 53.429 6.39857 52.8685 6.39857C52.3079 6.39857 51.7984 6.52569 51.3543 6.787C50.9029 7.04831 50.5535 7.40849 50.2914 7.87461C50.0294 8.34073 49.8983 8.85629 49.8983 9.41422C49.8983 9.97216 50.0294 10.5018 50.2914 10.9609ZM55.8459 0H58.2992V14.4215H55.8459V0Z" fill="#F2F2F2"/>
<path d="M62.3759 8.41816H69.1461L68.5855 9.15972C68.5564 8.61591 68.4181 8.12154 68.156 7.6766C67.894 7.23873 67.5445 6.88561 67.1005 6.63136C66.6564 6.37712 66.1541 6.24999 65.5935 6.24999C65.033 6.24999 64.5234 6.38418 64.0648 6.65961C63.6062 6.93505 63.2494 7.30936 62.9801 7.79667C62.7107 8.28397 62.5797 8.82072 62.5797 9.4069C62.5797 9.99308 62.718 10.544 62.9947 11.0242C63.2713 11.5044 63.6498 11.8788 64.1303 12.1542C64.6108 12.4296 65.1568 12.5638 65.7537 12.5638C66.3506 12.5638 66.9185 12.4296 67.4135 12.1542C67.9012 11.8788 68.2798 11.4974 68.5491 11.003L70.5584 11.8788C70.0997 12.698 69.4518 13.3548 68.6001 13.8562C67.7484 14.3577 66.7801 14.6049 65.6955 14.6049C64.6763 14.6049 63.7445 14.3789 62.9073 13.9198C62.0628 13.4678 61.4004 12.8392 60.9199 12.0483C60.4395 11.2573 60.1992 10.3745 60.1992 9.39984C60.1992 8.42522 60.4395 7.55654 60.9126 6.75849C61.3858 5.96043 62.0337 5.33188 62.8636 4.87988C63.6862 4.42788 64.6035 4.19482 65.6081 4.19482C66.7219 4.19482 67.712 4.47026 68.5783 5.01407C69.4518 5.55787 70.0924 6.29237 70.5147 7.21755C70.9369 8.14273 71.0752 9.13853 70.9296 10.2191H62.3904V8.40404L62.3759 8.41816Z" fill="#F2F2F2"/>
<path d="M75.232 12.3522C75.5815 12.5994 76.0474 12.7194 76.637 12.7194C77.2267 12.7194 77.7072 12.6064 78.0857 12.3804C78.457 12.1545 78.6462 11.872 78.6462 11.533C78.6462 11.2575 78.5443 11.0456 78.3332 10.8761C78.1221 10.7137 77.8673 10.5937 77.5616 10.5089C77.2558 10.4242 76.8336 10.3465 76.2949 10.2688C75.4941 10.1417 74.8389 9.99334 74.3366 9.83091C73.8343 9.66847 73.3975 9.39304 73.019 8.99048C72.6404 8.59498 72.4584 8.02999 72.4584 7.30256C72.4584 6.7305 72.6404 6.20788 73.0044 5.7347C73.3684 5.26151 73.8634 4.8872 74.504 4.61177C75.1447 4.33633 75.8508 4.20215 76.6443 4.20215C77.8382 4.20215 78.8137 4.46346 79.5853 4.97902C80.357 5.49457 80.8156 6.19376 80.9612 7.06243L78.5298 7.57093C78.4497 7.09068 78.2459 6.72344 77.9255 6.46919C77.6052 6.21494 77.1757 6.08782 76.637 6.08782C76.142 6.08782 75.7343 6.19376 75.414 6.39857C75.0937 6.60338 74.9336 6.87175 74.9336 7.19662C74.9336 7.47206 75.0282 7.68393 75.2247 7.84636C75.4213 8.0088 75.6688 8.12886 75.9673 8.20655C76.2658 8.28424 76.6953 8.36898 77.2412 8.4608C78.0347 8.58792 78.6826 8.74329 79.1995 8.90573C79.7164 9.06817 80.1604 9.35773 80.539 9.76028C80.9103 10.1628 81.0995 10.7349 81.0995 11.4765C81.0995 12.0626 80.903 12.5923 80.5099 13.0655C80.1168 13.5387 79.5781 13.913 78.8938 14.1884C78.2095 14.4639 77.4596 14.5981 76.6443 14.5981C75.829 14.5981 75.0646 14.478 74.4385 14.2449C73.8125 14.0119 73.3029 13.6799 72.9098 13.2491C72.5239 12.8183 72.2764 12.3169 72.1672 11.7307L74.6205 11.2222C74.686 11.7166 74.8972 12.0838 75.2466 12.331L75.232 12.3522Z" fill="#F2F2F2"/>
<path d="M83.0505 0.565086C83.3416 0.282588 83.6984 0.134277 84.1133 0.134277C84.5282 0.134277 84.8631 0.275526 85.147 0.565086C85.4382 0.847583 85.5765 1.18658 85.5765 1.57501C85.5765 1.96345 85.4309 2.32363 85.147 2.60613C84.8558 2.88863 84.5137 3.03694 84.1133 3.03694C83.7129 3.03694 83.3416 2.89569 83.0505 2.60613C82.7593 2.32363 82.6064 1.97757 82.6064 1.57501C82.6064 1.17246 82.752 0.847583 83.0505 0.565086ZM82.8757 4.40705H85.329V14.4216H82.8757V4.40705Z" fill="#F2F2F2"/>
<path d="M87.8697 6.71641C88.3137 5.94661 88.918 5.33217 89.6896 4.88724C90.4613 4.44231 91.313 4.21631 92.2521 4.21631C93.1912 4.21631 93.9993 4.43524 94.7127 4.88018C95.4261 5.32511 95.9866 5.93248 96.3798 6.70229C96.7729 7.47209 96.9694 8.33371 96.9694 9.28714C96.9694 10.2406 96.7729 11.1092 96.3798 11.879C95.9866 12.6489 95.4261 13.2492 94.7127 13.6941C93.9993 14.139 93.1766 14.358 92.2521 14.358C91.3276 14.358 90.4613 14.139 89.6896 13.6941C88.918 13.2562 88.3137 12.6489 87.8697 11.872C87.4256 11.0951 87.2072 10.2476 87.2072 9.30832C87.2072 8.36902 87.4256 7.50034 87.8697 6.72347V6.71641ZM91.0582 15.8976C91.5096 16.1942 92.0337 16.3425 92.6234 16.3425C93.213 16.3425 93.7008 16.2154 94.1594 15.9541C94.618 15.6928 94.9893 15.3326 95.2659 14.8735C95.5426 14.4145 95.6809 13.8918 95.6809 13.3057V4.40699H98.1342V13.3339C98.1342 14.2944 97.8867 15.1701 97.3989 15.9611C96.9112 16.7521 96.2487 17.3736 95.4115 17.8327C94.5744 18.2917 93.6498 18.5177 92.6307 18.5177C91.5605 18.5177 90.5996 18.2706 89.7624 17.7691C88.9252 17.2677 88.2701 16.6038 87.8114 15.7705L90.0027 14.6616C90.2574 15.1913 90.6142 15.608 91.0655 15.9117L91.0582 15.8976ZM90.1264 10.7561C90.3885 11.2011 90.7452 11.5471 91.1893 11.8014C91.6406 12.0556 92.1429 12.1827 92.7035 12.1827C93.264 12.1827 93.7736 12.0556 94.2177 11.8014C94.669 11.5471 95.0184 11.2011 95.2805 10.7561C95.5426 10.3183 95.6736 9.82388 95.6736 9.27301C95.6736 8.72214 95.5426 8.25602 95.2805 7.81109C95.0184 7.37322 94.6617 7.02009 94.2177 6.76585C93.7663 6.5116 93.264 6.38448 92.7035 6.38448C92.1429 6.38448 91.6333 6.5116 91.1893 6.76585C90.7379 7.02009 90.3885 7.36615 90.1264 7.81109C89.8643 8.25602 89.7333 8.74333 89.7333 9.2942C89.7333 9.84507 89.8643 10.3112 90.1264 10.7561Z" fill="#F2F2F2"/>
<path d="M100.522 4.40673H102.975V6.84327L102.597 6.35596C102.946 5.70622 103.441 5.1836 104.082 4.79517C104.722 4.40673 105.458 4.20898 106.273 4.20898C107.088 4.20898 107.816 4.39261 108.464 4.75279C109.105 5.12004 109.607 5.61441 109.964 6.24297C110.321 6.87152 110.495 7.59189 110.495 8.39701V14.4213H108.064V8.7925C108.064 8.34051 107.955 7.92382 107.729 7.55658C107.511 7.18933 107.205 6.89977 106.826 6.6879C106.448 6.48309 106.004 6.37715 105.509 6.37715C105.014 6.37715 104.591 6.48309 104.213 6.6879C103.834 6.89271 103.529 7.18227 103.31 7.55658C103.092 7.92382 102.975 8.34051 102.975 8.7925V14.4213H100.522V4.40673Z" fill="#F2F2F2"/>
<path d="M115.132 12.3522C115.482 12.5994 115.948 12.7194 116.537 12.7194C117.127 12.7194 117.608 12.6064 117.986 12.3804C118.357 12.1545 118.547 11.872 118.547 11.533C118.547 11.2575 118.445 11.0456 118.234 10.8761C118.023 10.7137 117.768 10.5937 117.462 10.5089C117.156 10.4242 116.734 10.3465 116.195 10.2688C115.395 10.1417 114.739 9.99334 114.237 9.83091C113.735 9.66847 113.298 9.39304 112.919 8.99048C112.541 8.59498 112.359 8.02999 112.359 7.30256C112.359 6.7305 112.541 6.20788 112.905 5.7347C113.269 5.26151 113.764 4.8872 114.404 4.61177C115.045 4.33633 115.751 4.20215 116.545 4.20215C117.739 4.20215 118.714 4.46346 119.486 4.97902C120.257 5.49457 120.716 6.19376 120.862 7.06243L118.43 7.57093C118.35 7.09068 118.146 6.72344 117.826 6.46919C117.506 6.21494 117.076 6.08782 116.537 6.08782C116.042 6.08782 115.635 6.19376 115.314 6.39857C114.994 6.60338 114.834 6.87175 114.834 7.19662C114.834 7.47206 114.929 7.68393 115.125 7.84636C115.322 8.0088 115.569 8.12886 115.868 8.20655C116.166 8.28424 116.596 8.36898 117.142 8.4608C117.935 8.58792 118.583 8.74329 119.1 8.90573C119.617 9.06817 120.061 9.35773 120.439 9.76028C120.811 10.1628 121 10.7349 121 11.4765C121 12.0626 120.803 12.5923 120.41 13.0655C120.017 13.5387 119.479 13.913 118.794 14.1884C118.11 14.4639 117.36 14.5981 116.545 14.5981C115.729 14.5981 114.965 14.478 114.339 14.2449C113.713 14.0119 113.203 13.6799 112.81 13.2491C112.424 12.8183 112.177 12.3169 112.068 11.7307L114.521 11.2222C114.586 11.7166 114.798 12.0838 115.147 12.331L115.132 12.3522Z" fill="#F2F2F2"/>
</svg>
