<svg width="144" height="62" viewBox="0 0 144 62" fill="none" xmlns="http://www.w3.org/2000/svg">
<path d="M0.64 39.616L5.312 38.656C5.76 42.304 8.896 44.608 13.312 44.608C19.008 44.608 22.528 42.24 22.528 38.528C22.528 30.784 4.48 36.224 4.48 24.896C4.48 19.392 9.664 14.976 17.536 14.976C24.512 14.976 28.992 19.008 29.696 24L25.024 24.96C24.512 21.312 21.632 19.072 17.408 19.072C12.544 19.072 9.344 21.248 9.344 24.704C9.344 32 27.392 26.752 27.392 38.4C27.392 44.48 21.376 48.64 13.312 48.64C5.952 48.64 1.344 44.608 0.64 39.616ZM65.352 43.264L80.52 15.616H85.64L67.208 48H61.832L58.056 22.4L43.336 48H38.024L33.352 15.616H38.152L41.608 43.264L56.904 15.616H61.832L65.352 43.264ZM91.9585 6.016C91.9585 4.224 93.3025 2.88 95.0945 2.88C96.8225 2.88 98.2305 4.224 98.2305 6.016C98.2305 7.68 96.8225 9.088 95.0945 9.088C93.3025 9.088 91.9585 7.68 91.9585 6.016ZM88.5665 48H83.7665L90.6145 15.616H95.4145L88.5665 48ZM143.103 19.968H133.247L129.663 36.992C128.639 41.728 130.047 43.648 134.783 43.648H138.047L137.151 48H134.335C126.591 48 123.391 43.968 124.991 36.416L128.447 19.968H112.255L106.303 48H101.503L107.455 19.968H100.159L101.055 15.616H108.351L109.183 11.84C110.847 3.584 114.495 0.639999 122.943 0.639999H126.143L125.247 4.992H121.983C116.927 4.992 115.071 6.592 113.983 11.648L113.151 15.616H129.407L131.839 4.032L136.959 2.56L134.207 15.616H143.999L143.103 19.968Z" fill="#AC1081"/>
</svg>
