<svg width="43" height="50" viewBox="0 0 43 50" fill="none" xmlns="http://www.w3.org/2000/svg">
<path d="M10.3617 41.3684C12.47 42.8866 15.1183 43.6328 18.3322 43.6328C22.4717 43.6328 25.7371 42.8351 28.1539 41.2655C30.5708 39.6959 31.7535 37.586 31.7535 34.91C31.7535 33.3146 31.265 32.0281 30.2623 31.076C29.2595 30.124 28.0511 29.4035 26.5598 28.8889C25.0686 28.3743 23.1145 27.8597 20.6462 27.3193C17.4323 26.7018 14.8355 26.007 12.83 25.2351C10.8245 24.4632 9.10182 23.2796 7.6877 21.6585C6.27357 20.0632 5.55365 17.8503 5.55365 15.0714C5.55365 12.2924 6.35071 10.0024 7.9191 7.84096C9.48749 5.67956 11.6987 3.95558 14.5269 2.6433C17.3552 1.35675 20.6719 0.687744 24.4258 0.687744C29.3624 0.687744 33.3991 1.94856 36.5101 4.44447C39.6212 6.94038 41.4724 10.0538 42.0124 13.7591L35.2503 15.1486C34.9417 12.4983 33.8104 10.3883 31.8307 8.84447C29.8509 7.30061 27.3569 6.52868 24.3229 6.52868C20.6719 6.52868 17.7923 7.27488 15.6582 8.74155C13.5242 10.2082 12.47 12.241 12.47 14.7626C12.47 16.255 12.9585 17.4386 13.9098 18.3392C14.8612 19.2398 16.0439 19.9088 17.4837 20.372C18.8979 20.8351 20.8519 21.324 23.3202 21.8129C26.5855 22.5591 29.2338 23.3053 31.2907 24.0258C33.3476 24.7462 35.0446 25.9813 36.4844 27.6281C37.8985 29.3006 38.6185 31.6421 38.6185 34.6784C38.6185 37.5088 37.7443 40.0562 35.9702 42.269C34.2218 44.4819 31.7792 46.2316 28.6939 47.4924C25.6085 48.7532 22.1632 49.3965 18.3322 49.3965C14.8869 49.3965 11.8272 48.8304 9.17896 47.6725C6.53069 46.5404 4.42235 44.9708 2.87967 42.9895C1.33699 41.0082 0.38567 38.7953 0 36.3252L6.65924 34.9357C7.0192 37.6632 8.25335 39.7731 10.3617 41.2913V41.3684Z" fill="#AC1081"/>
</svg>
